<?xml version="1.0" encoding="UTF-8" standalone="no"?><!DOCTYPE svg PUBLIC "-//W3C//DTD SVG 1.1//EN" "http://www.w3.org/Graphics/SVG/1.1/DTD/svg11.dtd"><svg width="100%" height="100%" viewBox="0 0 1536 473" version="1.1" xmlns="http://www.w3.org/2000/svg" xmlns:xlink="http://www.w3.org/1999/xlink" xml:space="preserve" xmlns:serif="http://www.serif.com/" style="fill-rule:evenodd;clip-rule:evenodd;stroke-linejoin:round;stroke-miterlimit:2;"><g><path d="M101.592,463.592c46.527,0 80.81,-27.986 89.555,-68.216l-38.131,-0c-8.046,19.94 -26.587,33.234 -51.424,33.234c-32.884,-0 -54.923,-23.439 -54.923,-55.973c-0,-32.534 22.039,-55.972 54.923,-55.972c24.837,-0 43.378,13.293 51.424,33.233l38.131,0c-8.745,-40.23 -43.028,-68.216 -89.555,-68.216c-54.574,0 -93.055,38.481 -93.055,90.955c0,52.474 38.481,90.955 93.055,90.955Z" style="fill:#2196f3;fill-rule:nonzero;"/><rect x="224.381" y="210.667" width="37.781" height="248.378" style="fill:#2196f3;fill-rule:nonzero;"/><path d="M388.8,463.592c54.573,0 93.054,-38.481 93.054,-90.955c0,-52.474 -38.481,-90.955 -93.054,-90.955c-54.573,0 -93.054,38.481 -93.054,90.955c-0,52.474 38.481,90.955 93.054,90.955Zm-0,-34.982c-32.884,-0 -54.923,-23.439 -54.923,-55.973c0,-32.534 22.039,-55.972 54.923,-55.972c32.884,-0 54.573,23.438 54.573,55.972c0,32.534 -21.689,55.973 -54.573,55.973Z" style="fill:#2196f3;fill-rule:nonzero;"/><path d="M594.499,463.592c51.074,0 85.357,-29.735 85.357,-87.457l0,-89.905l-37.781,-0l0,89.905c0,34.983 -18.891,52.475 -47.576,52.475c-28.686,-0 -47.577,-17.492 -47.577,-52.475l-0,-89.905l-37.781,-0l-0,89.905c-0,58.072 34.283,87.457 85.358,87.457Z" style="fill:#2196f3;fill-rule:nonzero;"/><path d="M800.547,463.592c53.873,0 92.005,-36.382 92.005,-92.354l-0,-160.571l-37.782,0l0,103.199c-12.244,-20.64 -34.633,-32.184 -60.87,-32.184c-43.378,0 -86.757,31.135 -86.757,89.556c-0,54.573 38.481,92.354 93.404,92.354Zm-0.35,-34.982c-32.884,-0 -54.923,-23.439 -54.923,-55.973c0,-32.534 22.039,-55.972 54.923,-55.972c32.534,-0 54.573,23.438 54.573,55.972c0,32.534 -22.039,55.973 -54.573,55.973Z" style="fill:#2196f3;fill-rule:nonzero;"/><path d="M1018.84,463.592c54.923,0 93.404,-37.781 93.404,-92.354c0,-58.421 -43.378,-89.556 -86.757,-89.556c-26.237,0 -48.626,11.544 -60.87,32.184l0,-103.199l-37.781,0l-0,160.571c-0,55.972 38.131,92.354 92.004,92.354Zm0.35,-34.982c-32.534,-0 -54.573,-23.439 -54.573,-55.973c0,-32.534 22.039,-55.972 54.573,-55.972c32.884,-0 54.923,23.438 54.923,55.972c0,32.534 -22.039,55.973 -54.923,55.973Z" style="fill:#2196f3;fill-rule:nonzero;"/><path d="M1224.89,463.592c51.075,0 85.358,-29.735 85.358,-87.457l-0,-89.905l-37.782,-0l0,89.905c0,34.983 -18.89,52.475 -47.576,52.475c-28.686,-0 -47.577,-17.492 -47.577,-52.475l0,-89.905l-37.781,-0l-0,89.905c-0,58.072 34.283,87.457 85.358,87.457Z" style="fill:#2196f3;fill-rule:nonzero;"/><path d="M1430.94,463.592c53.874,0 92.005,-36.382 92.005,-92.354l-0,-160.571l-37.782,0l0,103.199c-12.244,-20.64 -34.633,-32.184 -60.87,-32.184c-43.378,0 -86.757,31.135 -86.757,89.556c0,54.573 38.481,92.354 93.404,92.354Zm-0.35,-34.982c-32.883,-0 -54.923,-23.439 -54.923,-55.973c0,-32.534 22.04,-55.972 54.923,-55.972c32.534,-0 54.573,23.438 54.573,55.972c0,32.534 -22.039,55.973 -54.573,55.973Z" style="fill:#2196f3;fill-rule:nonzero;"/><path d="M644.196,274.054c94.45,-121.771 261.375,-180.045 385.47,-124.777c-9.74,-27.543 -31.038,-47.725 -66.687,-58.768c-1.103,-1.949 2.164,-4.341 5.452,-6.748c1.72,-1.259 6.295,-3.699 3.762,-6.911c-25.344,-32.143 -54.9,-40.461 -87.37,-32.292c-64.119,-43.402 -136.44,-42.871 -215,-8.909c44.777,43.912 103.971,59.549 173.53,54.86c-102.159,28.17 -169.364,95.19 -199.157,183.545Z" style="fill:#2196f3;"/><circle cx="703.836" cy="129.157" r="21.738" style="fill:#2196f3;"/></g></svg>